<svg id="wing" xmlns="http://www.w3.org/2000/svg" width="733" height="733" viewBox="0 0 733 733">
  <path id="Path_1" data-name="Path 1" d="M0,733V0H733V733Z" fill="none"/>
  <g id="Group_1" data-name="Group 1" transform="translate(63.838 105.779)">
    <path id="Path_2" data-name="Path 2" d="M619.687,37.258A14.652,14.652,0,0,0,596.7,28.286c-1.569,1.143-158.519,114.48-255.26,114.48-33.014,0-322.52,6.377-322.52,227.23,0,91.376,77.214,175.92,168.59,175.92a176.47,176.47,0,0,0,24.629-1.774c53.758-9.793,109.877-62,109.877-106.9,0-24-2.785-30.874-5.234-36.943-.777-1.935-1.569-4.09-2.3-6.421-20.524,7.96-45.593,12.769-75.646,12.769a14.66,14.66,0,0,1,0-29.32c80.571,0,117.28-38,117.28-73.3a13.921,13.921,0,0,1,.748-3.665,13.92,13.92,0,0,1-.748-3.665,14.656,14.656,0,0,1,14.66-14.66c27.121,0,58.64-22.415,58.64-51.31a14.66,14.66,0,1,1,29.32,0c0,38.5-33.058,72.684-73.652,79.369-1.935,25.494-15.994,51.325-43.526,69.855a25.645,25.645,0,0,0,2.4,9.353c4.032,9.983,7.389,20.465,7.389,47.953a88.88,88.88,0,0,1-1.041,13.385H356.1c43.042,0,75.323-13.047,95.95-38.761,24.746-30.859,25.42-71.629,23.4-94.205,23.412-3.049,40.975-12.842,52.322-29.232,18.955-27.341,14.1-65.735,8.767-88.3,25.3-3.533,45.534-14.411,60.311-32.428,38.893-47.469,23.515-127.088,22.84-130.459Z" transform="translate(-18.92 -25.474)" fill="#fff"/>
  </g>
</svg>
